<svg xmlns="http://www.w3.org/2000/svg" xmlns:xlink="http://www.w3.org/1999/xlink" width="443pt" height="229pt" viewBox="0 0 442.75 228.63"><g id="graph0" class="graph" transform="scale(1 1) rotate(0) translate(4 224.63)"><polygon fill="#fff" stroke="transparent" points="-4 4 -4 -224.63 438.75 -224.63 438.75 4 -4 4"/><g id="node1" class="node"><title>entry</title><polygon fill="none" stroke="#000" points="136.18 -220.63 79.53 -202.63 136.18 -184.63 192.82 -202.63 136.18 -220.63"/><text x="136.18" y="-198.43" font-family="Courier New" font-size="14" text-anchor="middle">entry</text></g><g id="node4" class="node"><title>stopped</title><ellipse cx="136.18" cy="-129.63" fill="none" stroke="#000" rx="63.35" ry="18"/><text x="136.18" y="-125.43" font-family="Courier New" font-size="14" text-anchor="middle">&lt;stopped&gt;</text></g><g id="edge1" class="edge"><title>entry-&gt;stopped</title><path fill="none" stroke="#000" d="M136.18,-184.44C136.18,-176.42 136.18,-166.68 136.18,-157.7"/><polygon fill="#000" stroke="#000" points="139.68 -157.66 136.18 -147.66 132.68 -157.66 139.68 -157.66"/></g><g id="node2" class="node"><title>playing</title><ellipse cx="63.18" cy="-29.42" fill="none" stroke="#000" rx="63.35" ry="18"/><text x="63.18" y="-25.22" font-family="Courier New" font-size="14" text-anchor="middle">isPlaying</text></g><g id="node3" class="node"><title>playingPaused</title><ellipse cx="352.18" cy="-29.42" fill="none" stroke="#000" rx="82.66" ry="29.33"/><text x="352.18" y="-33.62" font-family="Courier New" font-size="14" text-anchor="middle">isPlaying &amp;&amp;</text><text x="352.18" y="-16.82" font-family="Courier New" font-size="14" text-anchor="middle">isPaused</text></g><g id="edge3" class="edge"><title>playing-&gt;playingPaused</title><path fill="none" stroke="#000" d="M126.6,-29.42C165.44,-29.42 215.83,-29.42 259.14,-29.42"/><polygon fill="#000" stroke="#000" points="259.41 -32.92 269.41 -29.42 259.41 -25.92 259.41 -32.92"/><text x="197.97" y="-36.62" font-family="Courier New" font-size="14" text-anchor="middle">play()/resume()</text></g><g id="edge5" class="edge"><title>playing-&gt;stopped</title><path fill="none" stroke="#000" d="M84.79,-46.5C94.72,-54.73 106.07,-65.41 114.18,-76.83 119.54,-84.39 123.95,-93.46 127.37,-101.89"/><polygon fill="#000" stroke="#000" points="124.14 -103.23 130.94 -111.35 130.69 -100.76 124.14 -103.23"/><text x="149.37" y="-81.03" font-family="Courier New" font-size="14" text-anchor="middle">stop()</text></g><g id="edge4" class="edge"><title>playingPaused-&gt;playing</title><path fill="none" stroke="#000" d="M279.85,-14.9C246.07,-9.85 205.29,-6.2 168.58,-9.62 153.67,-11 137.72,-13.47 122.86,-16.21"/><polygon fill="#000" stroke="#000" points="121.94 -12.82 112.77 -18.14 123.25 -19.7 121.94 -12.82"/><text x="197.97" y="-13.82" font-family="Courier New" font-size="14" text-anchor="middle">pause()</text></g><g id="edge6" class="edge"><title>playingPaused-&gt;stopped</title><path fill="none" stroke="#000" d="M302.36,-53.07C264.56,-70.25 213.22,-93.6 177.65,-109.77"/><polygon fill="#000" stroke="#000" points="176.17 -106.6 168.51 -113.93 179.06 -112.97 176.17 -106.6"/><text x="269.37" y="-81.03" font-family="Courier New" font-size="14" text-anchor="middle">stop()</text></g><g id="edge2" class="edge"><title>stopped-&gt;playing</title><path fill="none" stroke="#000" d="M92.06,-116.6C80.97,-111.38 70.36,-104.01 63.78,-93.63 57.17,-83.2 56.25,-69.72 57.3,-57.89"/><polygon fill="#000" stroke="#000" points="60.82 -58.01 58.71 -47.63 53.89 -57.06 60.82 -58.01"/><text x="89.37" y="-81.03" font-family="Courier New" font-size="14" text-anchor="middle">play()</text></g></g></svg>